<svg id="Layer_1" data-name="Layer 1" xmlns="http://www.w3.org/2000/svg" viewBox="0 0 1080 1080"><defs><style>.cls-1{fill:#e0ba6e;}.cls-2{fill:#fff;}</style></defs><title>Castro</title><rect width="1080" height="1080"/><path class="cls-1" d="M234.71,430.13v26.36q-19.29-16.14-39.91-16.14-22.73,0-38.28,16.33t-15.66,39.71q0,23.21,15.66,39.15t38.38,15.94q11.73,0,19.95-3.81a58.32,58.32,0,0,0,9.5-5.16,114.33,114.33,0,0,0,10.36-7.83v26.83a80.39,80.39,0,0,1-40.1,10.79q-31.61,0-53.94-22.06Q118.43,528,118.42,496.58q0-28.15,18.62-50.21,22.91-27,59.29-27Q216.19,419.35,234.71,430.13Z"/><path class="cls-1" d="M368.55,533.82H305.44L289,569.62h-24L338,413l70.36,156.67H384Zm-9.07-20.91-21.86-50.12L314.7,512.91Z"/><path class="cls-1" d="M525.78,444.17l-18,10.69q-5.07-8.78-9.65-11.45-4.77-3.06-12.31-3.06-9.27,0-15.37,5.25a16.27,16.27,0,0,0-6.11,13q0,10.79,16,17.37l14.7,6q18,7.26,26.25,17.71t8.31,25.63q0,20.34-13.56,33.61T482.15,572.3q-19.18,0-31.7-11.36-12.31-11.37-15.37-32l22.53-5q1.53,13,5.35,17.94,6.87,9.55,20.05,9.55a23.24,23.24,0,0,0,17.28-7q6.87-7,6.87-17.66A24.72,24.72,0,0,0,506,519a20.16,20.16,0,0,0-3.72-6.58,29.79,29.79,0,0,0-6.54-5.64,63.37,63.37,0,0,0-9.55-5l-14.22-5.92Q441.67,483,441.67,458.4q0-16.62,12.7-27.79T486,419.35Q511.45,419.35,525.78,444.17Z"/><path class="cls-1" d="M615.51,443.12v126.5H593.27V443.12h-33.9V422.21h89.94v20.91Z"/><path class="cls-1" d="M734.75,506.8l45.63,62.82H753.17l-42.1-60.34h-4v60.34H684.81V422.21h26.07q29.21,0,42.2,11,14.31,12.22,14.32,32.27,0,15.66-9,26.92A40,40,0,0,1,734.75,506.8Zm-27.69-16.9h7.06q31.61,0,31.61-24.15,0-22.63-30.75-22.63h-7.92Z"/><path class="cls-1" d="M807.48,495.25q0-31.12,22.82-53.47t54.61-22.34q31.51,0,54,22.53t22.63,54.14q0,31.78-22.72,53.94T883.77,572.3q-28.56,0-51.27-19.77Q807.48,530.68,807.48,495.25Zm22.44.29q0,24.43,16.42,40.19t37.71,15.75q23.21,0,39.15-16,15.94-16.23,15.94-39.52,0-23.58-15.75-39.53t-38.76-16q-23,0-38.86,16Q829.92,472.25,829.92,495.54Z"/><path class="cls-2" d="M453.13,641.74h19.39v1.55a32,32,0,0,1-1.25,9.36,20,20,0,0,1-4.1,7.05,21.27,21.27,0,0,1-16.62,7.35,22.85,22.85,0,0,1-16.86-7.11,24.48,24.48,0,0,1,27.77-39.34,29.67,29.67,0,0,1,9,7.29l-5,4.83Q459.6,625,451.31,625a16.77,16.77,0,0,0-12.48,5.14,17.11,17.11,0,0,0-5.05,12.64,17.63,17.63,0,0,0,17,17.62,14.13,14.13,0,0,0,9.39-3.53,12.49,12.49,0,0,0,4.65-8.5h-11.7Z"/><path class="cls-2" d="M502.28,646.18l14.53,20h-8.66L494.75,647h-1.27v19.2H486.4V619.26h8.29q9.3,0,13.43,3.49A12.86,12.86,0,0,1,512.68,633a13.34,13.34,0,0,1-2.86,8.56A12.77,12.77,0,0,1,502.28,646.18Zm-8.8-5.38h2.24q10.06,0,10.06-7.68,0-7.22-9.78-7.21h-2.52Z"/><path class="cls-2" d="M525.43,642.5a23,23,0,0,1,7.26-17,23.89,23.89,0,0,1,17.38-7.11,24.52,24.52,0,0,1,24.39,24.4,23.05,23.05,0,0,1-7.22,17.16,24.79,24.79,0,0,1-33.85.79Q525.43,653.77,525.43,642.5Zm7.14.09a17,17,0,0,0,5.23,12.8,17.3,17.3,0,0,0,24.45-.1,18.18,18.18,0,0,0,.06-25.15A16.52,16.52,0,0,0,550,625a16.7,16.7,0,0,0-12.37,5.11A16.91,16.91,0,0,0,532.57,642.59Z"/><path class="cls-2" d="M595.42,619.26v28.26c0,4,.66,7,2,8.84a10.57,10.57,0,0,0,16.62,0q2-2.7,2-8.84V619.26h7.08v30.2a16.89,16.89,0,0,1-4.62,12.21,17.86,17.86,0,0,1-25.49,0,16.89,16.89,0,0,1-4.62-12.21v-30.2Z"/><path class="cls-2" d="M646.37,647.12v19h-7.08V619.26h8a36,36,0,0,1,8.9.82,12,12,0,0,1,5.35,3.1,13.37,13.37,0,0,1,4,10,12.86,12.86,0,0,1-4.31,10.2q-4.32,3.78-11.64,3.77Zm0-6.56H649q9.75,0,9.75-7.51,0-7.26-10-7.26h-2.34Z"/></svg>