<?xml version="1.0" encoding="UTF-8"?>
<svg xmlns="http://www.w3.org/2000/svg" version="1.1" viewBox="0 0 1080 1080">
  <defs>
    <style>
      .cls-1 {
        fill: #fff;
      }
    </style>
  </defs>
  <!-- Generator: Adobe Illustrator 28.7.3, SVG Export Plug-In . SVG Version: 1.2.0 Build 164)  -->
  <g>
    <g id="Camada_1">
      <g id="Layer_1">
        <g>
          <path class="cls-1" d="M234.7,430.1v26.4c-12.9-10.8-26.2-16.1-39.9-16.1s-27.9,5.4-38.3,16.3-15.6,24.1-15.7,39.7c0,15.5,5.2,28.5,15.7,39.2,10.4,10.6,23.2,15.9,38.4,15.9s14.5-1.3,19.9-3.8c3.3-1.4,6.5-3.1,9.5-5.2,3.6-2.4,7.1-5,10.4-7.8v26.8c-12.2,7-26,10.8-40.1,10.8-21.1,0-39.1-7.4-53.9-22.1-14.8-14.8-22.2-32.7-22.3-53.7,0-18.8,6.2-35.5,18.6-50.2,15.3-18,35-27,59.3-27s26,3.6,38.4,10.8h0Z"/>
          <path class="cls-1" d="M368.5,533.8h-63.1l-16.4,35.8h-24l73-156.6,70.4,156.7h-24.4l-15.5-35.8h0ZM359.5,512.9l-21.9-50.1-22.9,50.1h44.8Z"/>
          <path class="cls-1" d="M525.8,444.2l-18,10.7c-3.4-5.9-6.6-9.7-9.6-11.5-3.2-2-7.3-3.1-12.3-3.1s-11.3,1.8-15.4,5.2c-3.9,3.2-6.2,8-6.1,13,0,7.2,5.3,13,16,17.4l14.7,6c12,4.8,20.7,10.7,26.2,17.7s8.3,15.5,8.3,25.6-4.5,24.8-13.6,33.6c-9,8.8-20.3,13.3-33.9,13.4-12.8,0-23.4-3.8-31.7-11.4-8.2-7.6-13.3-18.2-15.4-32l22.5-5c1,8.7,2.8,14.6,5.4,17.9,4.6,6.4,11.3,9.5,20,9.5,6.5.2,12.7-2.4,17.3-7,4.6-4.7,6.9-10.6,6.9-17.7s-.4-5.3-1.2-7.8c-.8-2.4-2.1-4.6-3.7-6.6-1.9-2.2-4.1-4.1-6.5-5.6-3-1.9-6.2-3.6-9.5-5l-14.2-5.9c-20.2-8.6-30.3-21.1-30.3-37.5s4.2-20.3,12.7-27.8,19-11.2,31.6-11.3c17,0,30.2,8.3,39.8,24.8v.4Z"/>
          <path class="cls-1" d="M615.5,443.1v126.5h-22.2v-126.5h-33.9v-20.9h89.9v20.9h-33.8Z"/>
          <path class="cls-1" d="M734.8,506.8l45.6,62.8h-27.2l-42.1-60.3h-4v60.3h-22.3v-147.4h26.1c19.5,0,33.5,3.7,42.2,11,9.5,8.1,14.3,18.9,14.3,32.3s-3,19.4-9,26.9c-5.9,7.5-14.3,12.6-23.7,14.4h.1ZM707.1,489.9h7.1c21.1,0,31.6-8,31.6-24.1s-10.2-22.6-30.8-22.6h-7.9v46.8h0Z"/>
          <path class="cls-1" d="M807.5,495.2c0-20.7,7.6-38.6,22.8-53.5s33.4-22.3,54.6-22.3,39,7.5,54,22.5,22.5,33.1,22.6,54.1c0,21.2-7.6,39.2-22.7,53.9-15.1,14.8-33.5,22.2-55,22.2s-36.1-6.6-51.3-19.8c-16.7-14.6-25-33.7-25-57.3v.2ZM829.9,495.5c0,16.3,5.5,29.7,16.4,40.2s23.5,15.8,37.7,15.8,28.5-5.3,39.2-16c10.6-10.8,15.9-24,15.9-39.5s-5.3-28.9-15.8-39.5-23.4-16-38.8-16-28.3,5.3-38.9,16c-10.6,10.5-15.9,23.6-15.9,39.1h.2Z"/>
          <path class="cls-1" d="M453.1,641.7h19.4v1.5c0,3.2-.4,6.3-1.2,9.4-.9,2.6-2.3,5-4.1,7-4.2,4.8-10.3,7.5-16.6,7.3-6.4,0-12.5-2.5-16.9-7.1-9.5-9.7-9.3-25.2.4-34.6,7.3-7.1,18.2-9,27.4-4.7,3.4,1.8,6.5,4.3,9,7.3l-5,4.8c-3.9-5.1-8.6-7.7-14.1-7.7-4.7,0-9.2,1.8-12.5,5.1-3.4,3.3-5.2,7.9-5,12.6,0,9.5,7.5,17.3,17,17.6,3.5,0,6.8-1.2,9.4-3.5,2.6-2.1,4.3-5.2,4.6-8.5h-11.7v-6.6h0Z"/>
          <path class="cls-1" d="M502.3,646.2l14.5,20h-8.7l-13.4-19.2h-1.3v19.2h-7.1v-46.9h8.3c6.2,0,10.7,1.2,13.4,3.5,3,2.5,4.7,6.3,4.6,10.2,0,3.1-.9,6.1-2.9,8.6-1.9,2.4-4.6,4-7.5,4.6h.1ZM493.5,640.8h2.2c6.7,0,10.1-2.6,10.1-7.7s-3.3-7.2-9.8-7.2h-2.5v14.9h0Z"/>
          <path class="cls-1" d="M525.4,642.5c0-6.4,2.6-12.6,7.3-17,4.6-4.6,10.9-7.2,17.4-7.1,13.4,0,24.3,11,24.4,24.4,0,6.5-2.5,12.7-7.2,17.2-9.3,9.1-24.1,9.5-33.8.8-5.3-4.6-8-10.7-8-18.2h-.1ZM532.6,642.6c0,4.8,1.8,9.5,5.2,12.8,6.8,6.7,17.7,6.7,24.5,0,6.8-7,6.8-18.1,0-25.2-3.2-3.4-7.7-5.2-12.3-5.1-4.7,0-9.1,1.8-12.4,5.1-3.3,3.3-5.2,7.8-5.1,12.5h0Z"/>
          <path class="cls-1" d="M595.4,619.3v28.3c0,4,.7,7,2,8.8,3.6,4.6,10.3,5.4,14.8,1.8.7-.5,1.3-1.1,1.8-1.8,1.3-1.8,2-4.7,2-8.8v-28.3h7.1v30.2c.2,4.5-1.5,8.9-4.6,12.2-6.9,7-18.2,7.1-25.3.2l-.2-.2c-3.1-3.3-4.8-7.7-4.6-12.2v-30.2h7Z"/>
          <path class="cls-1" d="M646.4,647.1v19h-7.1v-46.9h8c3,0,6,.2,8.9.8,2,.5,3.9,1.6,5.3,3.1,2.7,2.6,4.1,6.3,4,10,.2,3.9-1.4,7.6-4.3,10.2-2.9,2.5-6.8,3.8-11.6,3.8h-3.2ZM646.4,640.6h2.6c6.5,0,9.8-2.5,9.8-7.5s-3.3-7.3-10-7.3h-2.3v14.8h0Z"/>
        </g>
      </g>
    </g>
  </g>
</svg>